<?xml version="1.0" encoding="UTF-8" standalone="no"?>
<!-- Created with Inkscape (http://www.inkscape.org/) -->

<svg
   width="128.24637mm"
   height="12.948193mm"
   viewBox="0 0 128.24637 12.948193"
   version="1.1"
   id="svg1"
   xml:space="preserve"
   xmlns:inkscape="http://www.inkscape.org/namespaces/inkscape"
   xmlns:sodipodi="http://sodipodi.sourceforge.net/DTD/sodipodi-0.dtd"
   xmlns="http://www.w3.org/2000/svg"
   xmlns:svg="http://www.w3.org/2000/svg"><sodipodi:namedview
     id="namedview1"
     pagecolor="#ffffff"
     bordercolor="#000000"
     borderopacity="0.25"
     inkscape:showpageshadow="2"
     inkscape:pageopacity="0.0"
     inkscape:pagecheckerboard="0"
     inkscape:deskcolor="#d1d1d1"
     inkscape:document-units="mm" /><defs
     id="defs1" /><g
     inkscape:label="Layer 1"
     inkscape:groupmode="layer"
     id="layer1"
     transform="translate(-76.729166,-239.97709)"><path
       style="fill:#ffffff;fill-opacity:1"
       d="m 78.372423,252.56858 c -0.436563,-0.20057 -1.023109,-0.62188 -1.303436,-0.93624 -0.368355,-0.41308 -0.429586,-0.65167 -0.220818,-0.86044 0.208767,-0.20877 0.540438,-0.097 1.196118,0.40313 0.528744,0.40329 1.250388,0.69199 1.729723,0.69199 0.45236,0 1.125365,-0.13801 1.495568,-0.30668 0.431153,-0.19645 0.767961,-0.64819 0.937015,-1.25677 0.145156,-0.52255 0.264584,-2.82532 0.265396,-5.11728 l 0.0015,-4.16719 h -2.40065 c -2.143914,0 -2.391114,-0.0495 -2.311481,-0.46302 0.07816,-0.40586 0.431647,-0.46302 2.863672,-0.46302 h 2.774501 l 0.07031,4.63021 c 0.04823,3.17633 -0.03619,4.99611 -0.26888,5.79549 -0.188442,0.64739 -0.631257,1.38165 -0.996353,1.65212 -0.361439,0.26777 -1.192943,0.54884 -1.847786,0.62462 -0.733123,0.0848 -1.495627,-0.002 -1.984375,-0.22692 z m 14.348152,0.19694 c -0.106119,-0.10612 -0.192944,-0.35169 -0.192944,-0.54572 0,-0.27881 0.859896,-0.35278 4.101042,-0.35278 3.783957,0 4.101037,0.0371 4.101037,0.47979 0,0.43869 -0.33471,0.48543 -3.908093,0.54572 -2.149454,0.0363 -3.994923,-0.0209 -4.101042,-0.12701 z m 16.909465,-0.0239 c -0.093,-0.093 -0.16908,-1.57798 -0.16908,-3.29998 0,-2.95451 0.0298,-3.1309 0.52917,-3.1309 0.49597,0 0.52917,0.17639 0.52917,2.81142 v 2.81142 l 2.97656,-0.11864 c 2.04067,-0.0813 3.23458,-0.25393 3.79718,-0.54894 0.45134,-0.23667 1.18361,-0.84373 1.62725,-1.34901 0.48655,-0.55414 0.9188,-1.44174 1.08931,-2.2368 0.21764,-1.01481 0.19868,-1.64194 -0.0824,-2.72545 -0.26702,-1.02939 -0.64382,-1.66736 -1.40308,-2.37559 -0.72877,-0.67978 -1.44911,-1.05642 -2.41779,-1.26417 -0.75888,-0.16275 -2.57326,-0.29591 -4.03198,-0.29591 -2.38463,0 -2.64292,-0.0467 -2.56008,-0.46302 0.0822,-0.41305 0.44872,-0.4602 3.39654,-0.43687 2.69042,0.0213 3.52496,0.12429 4.49133,0.55434 0.65281,0.29051 1.58807,0.93359 2.07836,1.42907 0.49029,0.49547 1.07033,1.31758 1.28898,1.8269 0.21865,0.50932 0.39754,1.64042 0.39754,2.51354 0,0.87313 -0.17608,2.00782 -0.39129,2.52154 -0.2152,0.51372 -0.7939,1.33666 -1.286,1.82876 -0.4921,0.4921 -1.43142,1.13213 -2.08738,1.42229 -0.9279,0.41046 -1.90418,0.54616 -4.39796,0.61132 -1.76291,0.0461 -3.28139,0.008 -3.37438,-0.0853 z m 19.67467,-6.29859 c 0,-6.30249 0.0107,-6.42995 0.52917,-6.29437 0.51004,0.13338 0.52917,0.3609 0.52917,6.29437 0,5.93348 -0.0191,6.161 -0.52917,6.29437 -0.51845,0.13558 -0.52917,0.008 -0.52917,-6.29437 z m 13.12165,5.96469 c -0.71397,-0.28655 -1.64761,-0.85286 -2.07475,-1.25847 -0.42714,-0.40561 -1.014,-1.19914 -1.30415,-1.76342 -0.29014,-0.56427 -0.59345,-1.6646 -0.67401,-2.44519 -0.10472,-1.01466 -0.0122,-1.77085 0.32459,-2.65271 0.25908,-0.6784 0.87852,-1.68447 1.37652,-2.2357 0.498,-0.55123 1.46344,-1.21652 2.14541,-1.47842 0.70414,-0.27041 1.92594,-0.4746 2.82745,-0.47254 1.24835,0.003 1.88425,0.16679 2.97656,0.76735 0.76399,0.42005 1.38906,0.8676 1.38906,0.99456 0,0.12696 -0.14882,0.28678 -0.33073,0.35516 -0.1819,0.0684 -0.91645,-0.17348 -1.63234,-0.53747 -0.71588,-0.36399 -1.70496,-0.6618 -2.19794,-0.6618 -0.49298,0 -1.44419,0.13796 -2.1138,0.30657 -0.78086,0.19662 -1.56485,0.65393 -2.18608,1.27516 -0.59501,0.59501 -1.10244,1.44666 -1.31562,2.20807 -0.19087,0.68171 -0.2831,1.71612 -0.20496,2.29869 0.0781,0.58258 0.37224,1.50482 0.65356,2.04943 0.28133,0.54462 1.00274,1.33726 1.60314,1.76142 0.78191,0.5524 1.49874,0.80498 2.52647,0.8902 0.78916,0.0654 1.89466,-0.0288 2.45667,-0.20935 0.56202,-0.18058 1.22577,-0.50632 1.47501,-0.72385 0.24924,-0.21753 0.64609,-0.32148 0.8819,-0.23099 0.2358,0.0905 0.37993,0.31091 0.32028,0.48985 -0.0596,0.17893 -0.63509,0.59077 -1.27877,0.9152 -0.64368,0.32444 -1.8847,0.65499 -2.75783,0.73457 -1.21668,0.11088 -1.89073,0.023 -2.88564,-0.37632 z m 17.8346,0.11105 c -0.65484,-0.20333 -1.62642,-0.73068 -2.15905,-1.17188 -0.53264,-0.44119 -1.23957,-1.36228 -1.57097,-2.04684 -0.42491,-0.87774 -0.60253,-1.71999 -0.60253,-2.85702 0,-1.14527 0.17765,-1.97932 0.61324,-2.87913 0.38549,-0.79632 1.0672,-1.59877 1.83555,-2.16068 0.70561,-0.51602 1.81266,-1.01843 2.61887,-1.1885 1.00861,-0.21277 1.76564,-0.21546 2.7252,-0.01 0.73075,0.15672 1.66792,0.4604 2.08261,0.67484 0.41468,0.21444 1.16352,0.86836 1.66409,1.45316 0.50056,0.58479 1.04829,1.52446 1.21718,2.08815 0.16888,0.56369 0.30445,1.54686 0.30125,2.18482 -0.003,0.63796 -0.24806,1.69571 -0.54414,2.35055 -0.29608,0.65485 -0.91241,1.57787 -1.36963,2.05117 -0.45722,0.47329 -1.46698,1.09837 -2.24391,1.38906 -0.77694,0.29069 -1.85463,0.52023 -2.39487,0.5101 -0.54025,-0.0101 -1.51805,-0.1848 -2.17289,-0.38813 z m 5.33206,-1.59001 c 0.61028,-0.42986 1.39591,-1.31734 1.74585,-1.97219 0.5235,-0.97965 0.6187,-1.48267 0.53728,-2.83882 -0.0781,-1.30101 -0.26359,-1.88126 -0.88051,-2.75456 -0.42985,-0.6085 -1.2578,-1.35491 -1.83989,-1.65868 -0.75895,-0.39608 -1.54482,-0.55159 -2.77812,-0.54974 -1.34128,0.002 -1.973,0.14687 -2.87022,0.6582 -0.70337,0.40085 -1.41579,1.10845 -1.83331,1.82088 -0.52486,0.89561 -0.68625,1.53915 -0.69741,2.78097 -0.0111,1.23909 0.13401,1.87675 0.62265,2.73555 0.35045,0.6159 1.07047,1.40657 1.60005,1.75703 0.52958,0.35046 1.19344,0.70198 1.47524,0.78116 0.28181,0.0792 1.25406,0.11647 2.16057,0.0829 1.33987,-0.0497 1.85578,-0.20731 2.75782,-0.84266 z m 11.65833,1.79364 c -0.25092,-0.17457 -0.32013,-1.02595 -0.26458,-3.25472 0.0655,-2.62908 0.13494,-3.02975 0.53825,-3.10703 0.41765,-0.08 0.46302,0.18868 0.46302,2.74211 v 2.83082 l 3.02368,-0.11574 c 2.78185,-0.10648 3.12378,-0.17791 4.27552,-0.89319 0.77462,-0.48107 1.45957,-1.17918 1.79674,-1.83126 0.35282,-0.68234 0.5478,-1.57079 0.55313,-2.52042 0.005,-0.88232 -0.18564,-1.8855 -0.47839,-2.51806 -0.26763,-0.57831 -0.84792,-1.34062 -1.28953,-1.69403 -0.44161,-0.35341 -1.40944,-0.7999 -2.15074,-0.99219 -0.74129,-0.19229 -2.58075,-0.34962 -4.08768,-0.34962 -2.4681,0 -2.73072,-0.0459 -2.64773,-0.46302 0.0822,-0.41325 0.44932,-0.46014 3.41536,-0.43624 2.9718,0.0239 3.47978,0.0984 4.80371,0.70457 0.99453,0.45531 1.73878,1.03434 2.26737,1.76404 0.43278,0.59744 0.92834,1.67592 1.10123,2.39663 0.17909,0.74652 0.23593,1.79751 0.1321,2.44251 -0.10024,0.62267 -0.47113,1.63412 -0.8242,2.24765 -0.35307,0.61354 -1.02625,1.40076 -1.49594,1.7494 -0.4697,0.34864 -1.27072,0.77802 -1.78004,0.95417 -0.50933,0.17616 -2.29526,0.37874 -3.96875,0.45016 -1.67349,0.0714 -3.19563,0.0235 -3.38253,-0.10654 z m 19.6985,0.0265 c -0.097,-0.097 -0.17639,-0.33514 -0.17639,-0.52917 0,-0.27881 0.8599,-0.35278 4.10104,-0.35278 3.92465,0 4.10104,0.0228 4.10104,0.52917 0,0.50538 -0.17639,0.52916 -3.92465,0.52916 -2.15856,0 -4.00403,-0.0794 -4.10104,-0.17638 z M 92.527631,246.3107 c 0,-0.50641 0.176389,-0.52917 4.101042,-0.52917 3.924647,0 4.101037,0.0228 4.101037,0.52917 0,0.50641 -0.17639,0.52917 -4.101037,0.52917 -3.924653,0 -4.101042,-0.0228 -4.101042,-0.52917 z m 104.245829,0 c 0,-0.50641 0.17639,-0.52917 4.10104,-0.52917 3.92465,0 4.10104,0.0228 4.10104,0.52917 0,0.50641 -0.17639,0.52917 -4.10104,0.52917 -3.92465,0 -4.10104,-0.0228 -4.10104,-0.52917 z M 92.577602,240.55608 c 0.07909,-0.41251 0.52858,-0.47183 4.120442,-0.54378 3.917606,-0.0785 4.031666,-0.0654 4.031666,0.46302 0,0.52538 -0.13946,0.54378 -4.120438,0.54378 -3.781659,0 -4.113143,-0.0381 -4.03167,-0.46302 z m 104.245938,0 c 0.0793,-0.41292 0.52513,-0.47092 4.12044,-0.53605 3.89648,-0.0706 4.03156,-0.0551 4.03156,0.46302 0,0.5154 -0.15873,0.53605 -4.12044,0.53605 -3.7817,0 -4.11313,-0.0381 -4.03156,-0.46302 z"
       id="path1-3"
       inkscape:export-filename="path1-3.svg"
       inkscape:export-xdpi="96"
       inkscape:export-ydpi="96" /></g></svg>
