<svg xmlns="http://www.w3.org/2000/svg" xmlns:xlink="http://www.w3.org/1999/xlink" width="32" zoomAndPan="magnify" viewBox="0 0 24 6" height="8" preserveAspectRatio="xMidYMid meet" version="1.0"><path fill="#d9d9d9" d="M 3 0 C 1.34375 0 0 1.34375 0 3 C 0 4.65625 1.34375 6 3 6 C 4.65625 6 6 4.65625 6 3 C 6 1.34375 4.65625 0 3 0 Z M 21 0 C 19.34375 0 18 1.34375 18 3 C 18 4.65625 19.34375 6 21 6 C 22.65625 6 24 4.65625 24 3 C 24 1.34375 22.65625 0 21 0 Z M 12 0 C 10.34375 0 9 1.34375 9 3 C 9 4.65625 10.34375 6 12 6 C 13.65625 6 15 4.65625 15 3 C 15 1.34375 13.65625 0 12 0 Z M 12 0 " fill-opacity="1" fill-rule="nonzero"/><path fill="#a6a6a6" d="M 3 0 C 1.34375 0 0 1.34375 0 3 C 0 4.65625 1.34375 6 3 6 C 4.65625 6 6 4.65625 6 3 C 6 1.34375 4.65625 0 3 0 Z M 21 0 C 19.34375 0 18 1.34375 18 3 C 18 4.65625 19.34375 6 21 6 C 22.65625 6 24 4.65625 24 3 C 24 1.34375 22.65625 0 21 0 Z M 12 0 C 10.34375 0 9 1.34375 9 3 C 9 4.65625 10.34375 6 12 6 C 13.65625 6 15 4.65625 15 3 C 15 1.34375 13.65625 0 12 0 Z M 12 0 " fill-opacity="1" fill-rule="nonzero"/></svg>