<svg xmlns="http://www.w3.org/2000/svg" xmlns:xlink="http://www.w3.org/1999/xlink" width="8" zoomAndPan="magnify" viewBox="0 0 6 23.999999" height="32" preserveAspectRatio="xMidYMid meet" version="1.0"><path fill="#d9d9d9" d="M 6 3 C 6 1.34375 4.65625 0 3 0 C 1.34375 0 0 1.34375 0 3 C 0 4.65625 1.34375 6 3 6 C 4.65625 6 6 4.65625 6 3 Z M 6 21 C 6 19.34375 4.65625 18 3 18 C 1.34375 18 0 19.34375 0 21 C 0 22.65625 1.34375 24 3 24 C 4.65625 24 6 22.65625 6 21 Z M 6 12 C 6 10.34375 4.65625 9 3 9 C 1.34375 9 0 10.34375 0 12 C 0 13.65625 1.34375 15 3 15 C 4.65625 15 6 13.65625 6 12 Z M 6 12 " fill-opacity="1" fill-rule="nonzero"/><path fill="#a6a6a6" d="M 6 3 C 6 1.34375 4.65625 0 3 0 C 1.34375 0 0 1.34375 0 3 C 0 4.65625 1.34375 6 3 6 C 4.65625 6 6 4.65625 6 3 Z M 6 21 C 6 19.34375 4.65625 18 3 18 C 1.34375 18 0 19.34375 0 21 C 0 22.65625 1.34375 24 3 24 C 4.65625 24 6 22.65625 6 21 Z M 6 12 C 6 10.34375 4.65625 9 3 9 C 1.34375 9 0 10.34375 0 12 C 0 13.65625 1.34375 15 3 15 C 4.65625 15 6 13.65625 6 12 Z M 6 12 " fill-opacity="1" fill-rule="nonzero"/></svg>